<?xml version="1.0" ?><svg xmlns="http://www.w3.org/2000/svg" width="247.39641mm" height="228.73283mm" viewBox="0 0 247.39641 228.73283">
    <path d="m 409.79874,91.802765 c -7.65945,-0.04898 -13.19348,0.01449 -14.55664,0.287109 -5.45262,1.090479 -13.47929,7.361171 -16.96289,16.425786 -3.48359,9.0646 -3.78722,13.42684 4.24024,17.03906 0,0 0.90815,4.22496 0.22656,8.24609 -0.68158,4.02115 1.59214,41.03029 0.30469,48.52735 -1.28745,7.49706 -0.90903,57.72724 -0.37891,65.76953 0.53012,8.04228 3.10352,49.95703 3.10352,49.95703 l 20.59961,21.33203 16.8125,-5.72461 c 0,0 14.0099,-0.61247 22.41601,0.95508 8.40611,1.56755 33.24589,1.22672 46.95313,1.29492 13.70724,0.0682 57.25237,-5.45328 59.67578,-8.11133 2.4234,-2.65805 2.49926,-73.94779 1.36328,-83.89844 -1.13599,-9.95064 -0.45401,-75.58318 -0.60547,-81.17187 -0.15147,-5.5887 -7.57407,-20.99246 -8.55859,-24.33203 -0.98452,-3.33958 4.54501,-7.90517 5.22656,-11.44922 0.68154,-3.54406 -6.89235,-9.746078 -13.55664,-11.041016 -6.6643,-1.294939 -47.02769,-3.748355 -55.13086,-3.203125 -6.07739,0.408922 -48.19352,-0.755389 -71.17188,-0.902344 z M 589.71671,274.17581 c -2.94139,0.009 -4.92807,0.14477 -5.38672,0.45508 -2.4461,1.65497 -1.3188,4.79301 1.00586,7.36914 0,0 43.23267,4.90146 47.08399,3.76172 3.85131,-1.13974 4.89131,-7.77409 2.58398,-8.61719 -1.8747,-0.68501 -32.54103,-3.00908 -45.28711,-2.96875 z m 50.27149,23.04492 c -0.13806,-0.007 -0.2731,-0.007 -0.4043,0.002 -4.19831,0.28103 -42.31252,9.91302 -44.67187,11.09961 -2.35938,1.18658 -9.42083,3.93598 -8.9004,7.01172 0,0 11.7291,6.74483 18.11329,7.63476 6.38417,0.88993 34.33113,-9.10301 39.86523,-10.97656 5.53411,-1.87355 7.33824,-4.20023 7.51172,-5.51172 0.16806,-1.2705 -7.23397,-9.03142 -11.51367,-9.25977 z m 34.67187,24.82032 c -8.16539,0.0523 -19.27183,0.67031 -22.39453,1.17773 -4.9963,0.81187 -13.67063,1.84123 -16.67187,3.63672 -3.00126,1.79548 -3.4352,5.77745 -0.3125,8.43164 0,0 40.87373,1.07697 45.93945,-0.39062 5.06569,-1.46761 3.7292,-10.80383 2.60156,-12.19336 -0.42286,-0.52109 -4.26287,-0.69349 -9.16211,-0.66211 z" fill="none" paint-order="markers stroke fill" transform="translate(-140.5815,94.230803) matrix(0.78621737,0,0,0.78621737,-152.2686,-164.1977)"/>
    <path d="m 617.81316,378.02845 c -10.3206,-2.12612 -39.79544,-6.18813 -72,-9.92251 -12.83334,-1.48812 -30.83334,-3.94939 -40,-5.46948 -19.1666,-3.17835 -27.63504,-3.58276 -40.53883,-1.93589 -6.23343,0.79553 -8.93288,0.73373 -8.36108,-0.19144 0.46443,-0.75147 2.80691,-1.7999 5.20549,-2.32984 4.71995,-1.04283 4.57423,-1.16267 -4.14185,-3.40614 -9.76464,-2.51334 -4.23328,-3.81758 7.83627,-1.8477 9.82241,1.60312 21.29437,1.38954 19.54104,-0.3638 -0.32083,-0.32082 -6.4988,-1.78732 -13.72884,-3.2589 -11.84198,-2.41026 -16.6948,-4.22153 -15.05664,-5.61972 0.31777,-0.27122 7.77777,0.55295 16.57777,1.83151 8.8,1.27855 22.3,2.64796 30,3.04312 l 14,0.71849 -16.03996,-1.75012 c -8.82199,-0.96256 -19.47199,-2.46258 -23.66667,-3.3334 -9.35266,-1.94161 -10.33366,-4.63565 -1.29337,-3.5519 24.91955,2.98733 61.65004,5.27794 59,3.67941 -2.5198,-1.51997 -27.16164,-3.88137 -50.66667,-4.85533 -23.29602,-0.9653 -32,-1.89799 -32,-3.42903 0,-2.08252 51.92752,-1.46883 84.92816,1.00371 29.38552,2.20168 32.0457,2.20146 53.33334,-0.004 12.32284,-1.27687 23.88645,-2.45251 25.69689,-2.61251 2.21575,-0.19584 3.44624,0.47177 3.76444,2.0424 0.35779,1.76609 -0.44242,2.35824 -3.29173,2.4358 -2.07043,0.0564 -6.16443,0.84947 -9.09776,1.76247 l -5.33333,1.66001 10.3306,1.01769 c 7.14261,0.70364 10.68761,1.65566 11.48749,3.08496 0.63631,1.137 3.43825,2.4381 6.22657,2.89132 7.34852,1.19447 7.61918,4.10862 0.39978,4.30458 l -5.77778,0.15682 6.46679,1.08507 c 8.45685,1.41897 10.55132,2.28729 9.52456,3.94863 -0.51909,0.83989 -5.04588,1.12073 -11.75119,0.72901 -10.46332,-0.61124 -10.58697,-0.58603 -3.04101,0.62017 4.3262,0.69152 8.20883,1.60034 8.62805,2.01956 1.41199,1.41198 -3.13138,3.28444 -6.49386,2.67634 -1.83334,-0.33158 -14.43334,-1.27452 -28,-2.09547 -13.56667,-0.82093 -39.80726,-2.97051 -58.31243,-4.77681 -20.33676,-1.9851 -36.30874,-2.93095 -40.37787,-2.39116 -3.70267,0.49117 -6.47809,1.14708 -6.16761,1.45756 0.89312,0.8931 24.41113,3.99594 63.81382,8.41924 31.00713,3.48082 55.35061,6.96469 70.71075,10.11964 2.01667,0.41421 3.66667,1.60545 3.66667,2.64719 0,2.30237 -4.06643,2.2492 -16,-0.20923 z m -3,-20.18506 c -2.01667,-0.3055 -5.31667,-0.3055 -7.33333,0 -2.01667,0.3055 -0.36667,0.55546 3.66666,0.55546 4.03334,0 5.68334,-0.24996 3.66667,-0.55546 z m -13.15723,-0.98 c -0.86773,-0.86773 -51.70852,-5.00105 -53.59511,-4.35725 -0.86954,0.29673 6.519,1.26769 16.419,2.15768 9.9,0.88997 19.2,1.80263 20.66667,2.02812 4.44286,0.68304 17.15303,0.81504 16.50944,0.17145 z m -59.48407,-5.60625 c -0.9027,-0.36523 -2.7027,-0.38745 -4,-0.0495 -1.29729,0.33806 -0.5587,0.63688 1.6413,0.66406 2.2,0.0272 3.26141,-0.24942 2.3587,-0.61466 z m 101.41682,-12.44551 c -11.48104,-1.26685 -12.44219,-1.77298 -12.44219,-6.55194 0,-7.791 6.83622,-10.09462 34.30536,-11.55998 20.16256,-1.07557 21.69464,-0.54592 21.69464,7.50004 0,7.10354 -2.30416,8.76494 -13.5812,9.79267 -5.36368,0.48881 -12.15213,1.1104 -15.08546,1.38129 -2.93334,0.27091 -9.63435,0.018 -14.89115,-0.56208 z m 30.75287,-6.61529 c 5.15949,-1.19685 7.82618,-3.50915 6.99413,-6.06461 -0.26597,-0.81686 -5.69244,-1.14211 -14.00895,-0.83967 -12.79597,0.46533 -13.81065,0.71396 -17.6852,4.33333 l -4.11038,3.83967 11.80766,-0.0319 c 6.49423,-0.0175 14.14546,-0.57409 17.00274,-1.2369 z m -31.35243,-3.04621 c 3.90563,-2.41398 4.34645,-3.07362 2.31545,-3.46486 -2.99632,-0.5772 -8.40453,2.0949 -9.37885,4.63391 -1.01692,2.65008 1.57959,2.22032 7.0634,-1.16905 z m -43.84263,-4.92742 c -2.56666,-0.51462 -6.93741,-2.02384 -9.71277,-3.3538 -11.24572,-5.389 -8.52814,-11.29549 7.04611,-15.31424 5.5,-1.41921 17.17057,-4.4789 25.9346,-6.7993 17.52238,-4.63932 23.12829,-4.59515 28.2566,0.22264 3.96998,3.72961 4.3035,10.433 0.56769,11.40993 -1.41593,0.37028 -2.8758,1.45861 -3.24416,2.41852 -0.37671,0.98169 -7.5632,3.31625 -16.42556,5.33592 -8.66572,1.97484 -18.01799,4.43033 -20.78283,5.45665 -2.76484,1.02632 -5.46484,1.79703 -6,1.7127 -0.53516,-0.0843 -3.07301,-0.57439 -5.63968,-1.08902 z m 8,-6.6678 c 0,-1.52904 -2.61822,-2.3037 -11.66666,-3.45185 -7.87044,-0.99868 -9.49054,0.84396 -2.66667,3.033 5.54695,1.77941 14.33333,2.03617 14.33333,0.41885 z m 35.97887,-8.69338 c 6.47836,-1.84134 7.29336,-0.24546 2.39395,-5.14487 -1.97172,-1.97172 -4.84794,-3.58493 -6.39159,-3.58493 -3.24652,0 -32.14645,6.38744 -33.06759,7.30857 -0.33924,0.33925 0.97716,1.22284 2.92535,1.96355 1.9482,0.74069 4.10156,2.81805 4.78527,4.61633 1.06646,3.73381 1.44522,3.20688 4.88181,2.14041 l 7.42761,-2.30497 c 6.08648,-1.88879 13.75682,-4.13613 17.04519,-4.99409 z m -243.02861,6.93686 c -3.08932,-3.11666 -8.31693,-7.84426 -11.61693,-10.50578 -9.05574,-6.20012 -6.0478,-9.02565 -6.17311,-20 -0.0952,-8.33848 -0.81636,-17.87076 -1.60253,-21.18284 -2.02055,-8.51228 -4.19561,-41.26423 -4.21117,-63.41152 -0.009,-13.10569 0.80608,-23.31666 2.70272,-33.84969 1.73237,-9.62082 2.57736,-19.23609 2.33333,-26.55152 -0.34257,-10.26968 -0.66136,-11.51682 -3.04924,-11.92946 -4.15053,-0.71724 -6,-4.1728 -6,-11.21048 0,-7.98398 3.61633,-15.41594 10.10301,-20.7628 9.01483,-7.43078 11.14198,-7.62154 81.67582,-7.32458 73.15839,0.308 75.36755,0.56132 84.49484,9.68862 5.81185,5.81184 6.23317,8.92233 2.18435,16.12624 -4.35838,5.57939 -1.2851,8.82959 1.2921,14.8482 5.88034,13.7325 6.11804,15.51314 4.24359,31.78689 -1.52555,13.24461 -1.39887,16.90651 1.4234,41.14592 3.08076,26.45942 3.08537,26.74332 0.82952,51.03678 -1.24765,13.43614 -2.26355,30.30046 -2.25755,37.47626 0.0133,15.62956 -1.41168,18.56743 -10.42868,21.50404 -9.66085,3.14631 -41.65534,7.49154 -61.5604,8.36064 -17.35217,0.75764 -37.45821,-0.65044 -52.95054,-3.70824 -6.01684,-1.18758 -7.78599,-1.00232 -13.1695,1.37906 -9.07479,4.01421 -11.82992,3.57434 -18.26303,-2.91574 z m 15.97047,-3.88984 c 6.70218,-2.7779 7.42627,-2.81664 18.69243,-1 25.00527,4.03203 86.93989,1.36595 107.47109,-4.62628 5.20733,-1.0326 5.08549,-1.54707 5.18217,-6.51168 l 0.44737,-22.9722 c 0.29989,-15.4 1.01424,-34 1.58742,-41.33333 0.57319,-7.33333 0.6326,-17.83333 0.132,-23.33333 -1.37676,-15.12658 -1.21588,-44.83182 0.29959,-55.31891 1.366,-9.4527 0.65139,-13.40066 -6.70435,-37.03883 -0.93798,-3.01431 -0.52745,-4.42924 2.23914,-7.71712 3.2468,-3.85861 3.29049,-4.13348 1.05052,-6.60863 -1.28546,-1.42041 -5.03598,-3.88902 -8.33448,-5.4858 -5.53455,-2.67922 -8.22147,-2.92209 -34.8238,-3.14764 -15.85456,-0.13441 -34.5265,-0.92684 -41.49316,-1.76094 -19.25192,-2.30499 -65.60238,-2.06928 -71.42415,0.36321 -5.31924,2.22252 -8.28382,7.85471 -9.48852,18.02656 -1.78092,9.85133 1.12045,6.50106 10.74725,7.30297 8.07067,0.67228 11.49875,1.47588 11.49875,2.6955 0,2.22721 -1.84642,2.89533 -11.24743,4.06992 -7.41759,0.92676 -7.64017,1.07085 -6.88271,4.45538 3.54216,15.82723 3.62028,17.72602 1.36799,33.24736 -2.92316,20.14448 -1.97508,74.70087 1.59153,91.58363 1.23938,5.86667 2.43026,17.56667 2.6464,26 0.67163,12.34779 -2.8225,12.46315 5.62108,20 2.87547,2.56667 6.274,6.31667 7.55231,8.33334 2.79984,4.41706 3.39752,4.4549 12.27156,0.77682 z m -1.57396,-11.75508 c -0.46061,-0.74529 -0.45802,-1.96905 0.005,-2.71945 1.51525,-2.45173 -1.89954,-19.38536 -5.49127,-27.23073 -5.04144,-11.01198 -7.16078,-28.03426 -7.2301,-58.07156 -0.0615,-26.61913 0.81463,-34.67091 5.29502,-48.66667 1.40856,-4.4 2.94742,-11.63908 3.41972,-16.08686 1.08401,-10.20841 2.83536,-13.48572 3.82315,-7.15422 2.04233,13.09092 2.0871,17.43368 0.26881,26.07752 -3.1538,14.99265 -3.74507,31.14266 -2.26367,61.83023 1.19364,24.72672 1.84943,30.09386 4.7715,39.0508 3.60457,11.04904 4.23442,19.84673 1.99752,27.90102 -1.47412,5.30772 -3.24336,7.25923 -4.59643,5.06992 z m 22.51916,-11.02174 c -1.89881,-5.81011 -1.00217,-16.02575 1.57182,-17.9079 3.54102,-2.58926 9.0465,-2.14378 13.12168,1.06175 5.3847,4.23561 4.21257,8.19392 -2.89276,9.76889 -5.2715,1.1685 -5.66667,1.56367 -5.66667,5.66667 0,3.47044 -0.54927,4.41059 -2.57681,4.41059 -1.49287,0 -2.98924,-1.26196 -3.55726,-3 z m 12.75939,-11.18088 c 1.03011,-1.0301 -3.06536,-3.11002 -6.16716,-3.13204 -2.25668,-0.016 -2.7196,0.57453 -2.15193,2.74526 0.5824,2.22712 1.4014,2.59548 4.20577,1.89163 1.9154,-0.48073 3.76639,-1.15792 4.11332,-1.50485 z m 7.22216,12.82857 c -1.09227,-1.09241 -0.99211,-3.8416 0.37811,-10.37833 2.0381,-9.72294 3.21626,-11.69134 6.29141,-10.5113 2.75224,1.05614 11.40881,13.02412 11.44995,15.82991 0.0399,2.72191 -2.12023,4.3214 -3.28684,2.43377 -1.49451,-2.41817 -8.78992,-1.51486 -11.13306,1.37848 -1.62745,2.00962 -2.60722,2.33999 -3.69957,1.24747 z m 8.81919,-11.98103 c 0,-0.73333 -0.26459,-1.33333 -0.58798,-1.33333 -0.32338,0 -0.9588,0.6 -1.41202,1.33333 -0.45323,0.73334 -0.18864,1.33334 0.58797,1.33334 0.77661,0 1.41203,-0.6 1.41203,-1.33334 z m 13.74152,8.47386 c -0.50392,-1.31318 0.0788,-2.8657 1.45252,-3.87022 2.15628,-1.5767 2.14401,-1.78525 -0.2045,-3.47385 -3.64017,-2.61735 -4.39376,-5.76857 -2.14669,-8.97672 2.19379,-3.13207 5.77964,-3.66391 8.22381,-1.21973 2.53878,2.53877 1.88534,3.73054 -2.06666,3.7692 -5.60855,-0.49588 -1.37125,2.3228 0.52574,3.6667 4.85926,4.20832 5.92343,6.70495 4.24718,9.96414 -1.57036,3.05329 -8.87442,3.1556 -10.0314,0.14052 z m 17.73446,0.0837 c -0.44513,-1.15995 -0.80932,-4.81612 -0.80932,-8.1248 0,-4.89444 -0.49706,-6.14576 -2.66666,-6.71312 -4.86887,-1.27324 -2.95384,-4.09459 3.11241,-4.58541 3.17849,-0.25718 6.77849,-0.27359 8,-0.0365 3.10197,0.60212 2.78059,4.33887 -0.44575,5.18258 -3.0825,0.80609 -3.09944,0.89496 -1.33957,7.03122 0.72989,2.54502 0.98947,5.69106 0.57681,6.9912 -0.93101,2.93335 -5.3331,3.10788 -6.42792,0.25486 z m 12.85735,1.19748 c -0.91667,-0.35419 -1.66667,-1.52387 -1.66667,-2.59928 0,-3.50405 7.2899,-19.12584 8.93215,-19.14103 0.87935,-0.008 3.05707,1.93522 4.83937,4.31855 7.42438,9.92803 7.90592,20.19395 0.71083,15.15431 -4.01583,-2.8128 -6.22796,-2.71908 -8.93529,0.37856 -1.21755,1.39308 -2.96372,2.24308 -3.88039,1.88889 z m -41,-35.05587 c -15.02513,-1.75614 -23.52652,-5.66744 -31.40717,-14.44973 -10.8971,-12.14385 -12.46754,-17.10541 -6.43596,-20.33341 1.84657,-0.98827 2.51112,-2.82826 2.51478,-6.96296 0.005,-6.47896 3.8455,-13.66797 8.41142,-15.74834 1.69905,-0.77415 3.65044,-3.31191 4.3364,-5.63948 0.8306,-2.81837 3.31958,-5.61699 7.45152,-8.37847 8.4706,-5.66112 18.4544,-6.75576 31.46234,-3.44954 5.31667,1.35133 9.66667,2.23936 9.66667,1.9734 0,-0.26596 -1.29279,-3.00967 -2.87285,-6.09712 -1.58008,-3.08746 -2.93008,-8.06 -3,-11.05011 -0.30419,-13.00692 17.88142,-24.55487 25.95484,-16.48145 3.79728,3.79728 2.94337,8.46614 -1.64544,8.99661 -4.49916,0.52011 -10.43655,6.35319 -10.43655,10.25321 0,1.6325 1.85396,5.30068 4.11992,8.15152 3.24493,4.08251 3.97476,6.07836 3.43647,9.39763 -0.60047,3.70272 -0.19994,4.41457 3.2995,5.86408 6.26894,2.59668 10.47744,9.91964 10.47744,18.23114 v 7.02382 h 4.46002 c 5.68976,0 8.87332,3.47472 8.87332,9.68486 0,10.16288 -4.81178,16.9563 -15.33334,21.64809 -14.73412,6.57025 -35.54793,9.445 -53.33333,7.36625 z m 42.91443,-11.31724 c 8.24686,-2.62281 15.57221,-7.30349 16.15345,-10.32156 0.38725,-2.0109 -0.0753,-2.0084 -5.99077,0.0325 -5.38396,1.85749 -11.64123,2.17014 -39.07711,1.95248 -17.96667,-0.14255 -35.36276,-0.64474 -38.65797,-1.11598 l -5.99131,-0.85681 2.65483,2.93355 c 3.48948,3.85584 9.13346,6.74321 17.32778,8.86464 9.39723,2.43285 44.29964,1.46305 53.5811,-1.4888 z m -64.28795,-20.23469 c -4.50676,-6.64108 -4.27911,-11.41392 0.74611,-15.64236 4.57296,-3.84789 7.5945,-4.48693 24.94197,-5.27512 10.23085,-0.46484 13.59577,-1.20776 19.88649,-4.39056 7.15967,-3.62247 12.44904,-9.42232 12.46063,-13.6632 0.003,-1.0032 -1.79501,-3.87408 -3.99501,-6.37974 -5.80079,-6.60673 -5.60862,-13.78768 0.53333,-19.92962 2.49333,-2.49334 5.49333,-4.53334 6.66667,-4.53334 1.17333,0 2.13333,-0.675 2.13333,-1.5 0,-2.33524 -8.08348,-0.21973 -11.52909,3.01724 -5.06555,4.75884 -5.84311,9.1757 -3.04299,17.28552 3.64473,10.55606 3.33436,16.0992 -1.17152,20.92276 -5.16204,5.52599 -11.88807,7.09144 -26.2564,6.11104 -21.20231,-1.44669 -28.66667,2.80885 -28.66667,16.34326 0,7.79348 2.99183,12.48685 7.95982,12.48685 2.49097,0 2.45658,-0.25037 -0.66667,-4.85273 z m 10.04019,1.29105 c 0,-3.8811 -3.35198,-8.43832 -6.20666,-8.43832 -2.51701,0 -2.22474,2.60946 0.85871,7.66667 3.20724,5.26027 5.34795,5.56915 5.34795,0.77165 z m 9.33333,-0.91678 c 0,-3.928 -6.47571,-13.82724 -9.57553,-14.63787 -1.33882,-0.35011 -3.78202,0.48788 -5.42934,1.8622 l -2.99513,2.49875 4.23656,0.0444 c 4.80881,0.0504 9.76344,5.12601 9.76344,10.00194 0,1.61222 0.38369,3.31499 0.85264,3.78395 1.46531,1.46529 3.14736,-0.43373 3.14736,-3.55333 z m 20.13693,0.81368 c 1.58444,-4.28316 11.81887,-9.66855 18.37415,-9.66855 5.60475,0 10.77116,3.35317 12.44275,8.07576 0.3746,1.05833 1.144,1.49348 1.70977,0.96699 1.88929,-1.75811 -2.32167,-9.14219 -6.42308,-11.26312 -4.81488,-2.48987 -14.4636,-1.74723 -21.16884,1.6293 -5.89713,2.96962 -14.74787,11.55514 -13.01568,12.62568 2.68915,1.66199 7.0648,0.3808 8.08093,-2.36606 z m 10.88703,0.99812 c 2.76829,-3.23312 8.38289,-3.48978 10.07807,-0.46068 0.75188,1.34353 2.09278,1.87665 3.42978,1.3636 1.85768,-0.71287 1.93432,-1.26472 0.49839,-3.58884 -2.74048,-4.43558 -7.00275,-4.63328 -15.04631,-0.69794 -4.02448,1.96899 -7.31722,4.13586 -7.31722,4.81526 0,2.29336 6.0562,1.25608 8.35729,-1.4314 z m -26.32413,-13.13086 c -6.6177,-6.80824 -9.43626,-6.78001 -4.32256,0.0433 1.82226,2.43149 3.7372,5.81472 4.2554,7.51828 0.89665,2.94772 1.06408,2.98704 3.4654,0.81388 2.45034,-2.21754 2.35218,-2.45944 -3.39824,-8.37544 z m 58.6335,9.13086 c -0.45322,-0.73334 -1.68864,-1.33334 -2.74536,-1.33334 -1.05672,0 -1.9213,0.6 -1.9213,1.33334 0,0.73333 1.23541,1.33333 2.74536,1.33333 1.50994,0 2.37453,-0.6 1.9213,-1.33333 z m -46,-13.48104 c 0,-0.6521 -0.61485,-1.18563 -1.36633,-1.18563 -1.23713,0 -4.03101,5.52237 -3.92264,7.75347 0.0645,1.32782 5.28897,-5.15994 5.28897,-6.56784 z m 18.0868,-3.8523 c 2.0265,0 3.24654,-0.76732 3.24654,-2.04184 0,-3.37783 -3.32735,-3.59844 -8.47399,-0.56184 -5.5796,3.29204 -6.51689,5.83455 -1.43921,3.90402 1.88106,-0.71519 4.88106,-1.30034 6.66666,-1.30034 z m 15.24654,1.93379 c 0,-1.78892 -3.97734,-8.16664 -6.53834,-10.48432 -3.84665,-3.48116 -5.28346,-1.51759 -1.68914,2.30838 1.59178,1.69438 2.89414,4.04202 2.89414,5.21698 0,1.17496 0.75,2.43892 1.66667,2.8088 2.35315,0.94952 3.66667,1.00331 3.66667,0.15016 z m -56.12658,-16.71768 c 5.59296,-4.13505 14.02379,-4.68796 22.4603,-1.473 4.23372,1.61337 7.31648,2.15624 7.80018,1.3736 1.16164,-1.87957 0.26466,-2.40851 -7.66265,-4.51849 -13.6868,-3.64296 -26.00259,-1.33551 -32.47125,6.08373 l -2.66667,3.05853 4.34553,-0.83933 c 2.39006,-0.46164 6.0776,-2.11991 8.19456,-3.68504 z m 19.45991,2.78392 c -3.86816,-1.66221 -16.57208,-1.66221 -14,0 1.1,0.71088 5.3,1.25952 9.33333,1.2192 5.31584,-0.0532 6.59971,-0.38855 4.66667,-1.2192 z m -63.33333,-69.0184 c 0,-3.94789 22.23497,-6.15415 62.88704,-6.23992 31.26784,-0.066 39.13504,0.45348 37.00185,2.44317 -0.30556,0.285 -18.85556,1.19714 -41.22223,2.02696 -22.36666,0.82983 -44.71666,1.87418 -49.66666,2.32076 -5.7711,0.52068 -9,0.323 -9,-0.55097 z m 44.66666,-12.45109 c -5.86666,-0.60308 -22.85117,-1.26915 -37.74336,-1.48018 -24.86695,-0.35236 -26.71679,-0.53974 -22.66667,-2.29613 3.57216,-1.54911 10.86975,-1.80467 38.41003,-1.34511 47.65216,0.79516 72.17123,0.63748 85.33334,-0.54878 11.46933,-1.0337 16.86113,0.14522 13.95505,3.0513 -0.91908,0.91908 -2.88193,0.88766 -6.09208,-0.0976 -3.85791,-1.18402 -6.80373,-0.93069 -15.88673,1.3662 -12.01688,3.03883 -33.72755,3.56884 -55.30958,1.35027 z m 141.33334,178.54984 c -17.54488,-1.60247 -21.28744,-2.61653 -21.52084,-5.83119 -0.1032,-1.42037 -0.60019,-3.58782 -1.10456,-4.81657 -0.63886,-1.55633 0.14717,-2.9314 2.59098,-4.53265 3.07471,-2.01463 5.68175,-2.18334 21.10458,-1.36576 9.67808,0.51305 20.29651,1.5417 23.59651,2.28592 3.3,0.74421 7.79134,1.46413 9.98077,1.59984 4.26757,0.2645 5.52625,2.71696 4.16927,8.12361 -1.5475,6.16573 -10.07272,7.16213 -38.81671,4.5368 z m 23.79916,-6.54043 c 1.31548,-1.53637 2.18529,-2.9999 1.93291,-3.25229 -0.99871,-0.99871 -40.96588,-2.2772 -43.27072,-1.38417 -2.36917,0.91794 -2.36442,1.02501 0.1268,2.85844 1.71253,1.26034 6.2235,1.93077 13.33333,1.98161 5.90984,0.0423 13.14516,0.57327 16.07849,1.18 8.28411,1.71351 9.24368,1.60099 11.79916,-1.38359 z" transform="translate(-140.5815,94.230803) matrix(0.78621737,0,0,0.78621737,-152.2686,-164.1977)" fill="#4e4d49"/>
</svg>