<?xml version="1.0" ?><svg xmlns="http://www.w3.org/2000/svg" width="200.93912mm" height="264.76532mm" viewBox="0 0 200.93912 264.76532">
    <path d="m 8970.9451,16153.04 c -2.7899,0.07 -5.67,0.318 -8.6426,0.765 -47.5622,7.16 -77.8605,44.786 -85.6465,64.436 -7.7859,19.65 5.246,37.472 15.2324,53.771 0,0 18.7883,17.671 37.0684,22.393 18.2802,4.723 49.4245,-4.265 61.1035,-15.08 11.679,-10.816 42.9922,-60.628 43.5,-74.795 0.476,-13.281 -20.7679,-52.534 -62.6152,-51.49 z m 144.5998,126.976 -17.9433,30.312 -36.3344,-33.965 c 0,0 -4.6263,27.263 -1.5797,42.496 3.0467,15.233 34.0215,28.942 34.0215,28.942 l -0.8457,33.666 c 0,0 -24.0349,66.413 -30.9746,78.904 -6.9397,12.491 -3.3846,133.441 0.1699,163.449 3.5545,30.009 56.8711,77.383 56.8711,77.383 0,0 -85.4778,5.94 -93.2637,7.92 -7.786,1.981 -7.7858,15.386 3.0469,24.83 l 17.2656,3.047 c 0,0 49.7618,267.337 51.2852,281.656 1.5233,14.319 12.1862,20.87 32.8359,20.565 20.6498,-0.304 171.801,-0.458 176.8789,-8.836 5.0778,-8.378 23.0195,-296.28 23.0195,-296.28 0,0 19.9715,-16.145 21.6641,-26.503 1.6926,-10.358 -98.1699,-5.637 -98.1699,-5.637 0,0 30.9745,-24.525 40.9609,-34.426 9.9864,-9.902 4.7379,-65.502 -0.3398,-94.596 -5.0778,-29.095 -46.3759,-83.173 -60.086,-94.293 -13.71,-11.12 -93.0942,-91.854 -100.7109,-97.795 -7.6167,-5.94 -13.2031,-15.08 -13.2031,-15.08 0,0 2.202,-36.863 4.4023,-51.486 2.2004,-14.624 -8.9707,-34.273 -8.9707,-34.273 z m -242.7187,25.148 c -2.8497,-0.07 -5.3758,0.251 -7.4492,1.051 -16.5875,6.398 -57.5488,47.832 -68.043,64.74 -10.4942,16.909 -22.0035,88.96 -24.8809,115.465 -2.8775,26.505 -10.4933,47.984 -7.7851,58.799 2.7081,10.815 7.2773,27.267 7.2773,27.267 l -67.0273,59.104 c -17.5038,26.77 -35.6614,41.335 -49.2539,56.056 0,0 -40.1162,77.077 -42.8243,88.502 -2.7082,11.424 -7.4467,36.255 1.1856,41.586 8.6323,5.332 33.1756,0.913 41.6387,-3.046 8.463,-3.961 132.8691,-155.833 132.8691,-155.833 0,0 40.6226,14.319 55.0098,12.643 14.3872,-1.675 39.4378,-11.271 44.0078,-30.008 4.5701,-18.736 3.046,-104.955 9.3086,-124.453 6.2626,-19.498 8.8007,-59.559 20.3105,-67.48 11.5097,-7.922 34.5307,-26.81 36.9004,-40.215 2.3696,-13.405 -8.9719,-63.978 -17.7734,-74.641 -7.7014,-9.33 -43.5231,-29.041 -63.4707,-29.537 z" fill="none" paint-order="fill markers stroke" transform="translate(396.21116,295.98434) matrix(0.26458333,0,0,0.26458333,-2672.63,-4545.6157)"/>
    <path d="m 8797.3516,17058.67 c -39.6224,-11.411 -44.9906,-14.613 -44.4662,-26.544 0.4104,-9.415 13.5232,-53.979 25.7486,-87.515 34.1099,-93.571 44.963,-147.57 45.6651,-240.053 l 0.2105,-27.345 -14.2253,-2.947 c -7.8243,-1.621 -15.568,-3.409 -17.2039,-3.972 -1.6368,-0.565 -12.2978,11.375 -23.6917,26.532 -34.1586,45.446 -87.7437,103.497 -106.8185,115.724 -5.5227,3.541 -16.3633,7.861 -24.0906,9.6 -15.0992,3.402 -24.7617,0.926 -31.8796,-8.162 -10.3221,-13.18 9.0048,-71.093 37.8339,-113.364 8.6486,-12.678 9.3777,-15.184 9.453,-32.566 0.068,-14.799 1.378,-21.225 6.1416,-29.992 5.4831,-10.105 5.7825,-12.316 3.1481,-23.365 -4.9616,-20.829 -3.8617,-27.782 6.0857,-38.481 5.9755,-6.427 9.0145,-12.192 9.0579,-17.187 0.1024,-11.087 11.8788,-51.791 22.4683,-77.626 19.0951,-46.594 37.9498,-74.466 76.227,-112.69 15.5464,-15.527 31.4292,-32.266 35.2938,-37.2 12.8965,-16.462 32.572,-27.388 54.8771,-30.479 22.6189,-3.132 71.8921,17.982 83.1557,35.634 5.3566,8.392 8.3782,24.141 12.1868,63.514 2.2587,23.33 14.8307,54.875 21.8704,54.875 5.3016,0 20.2414,-14.19 54.8221,-52.072 16.7099,-18.306 32.6145,-34.441 35.3386,-35.854 2.729,-1.415 6.1243,-5.536 7.5468,-9.159 2.3543,-5.998 1.5228,-7.467 -9.2656,-16.398 -6.5183,-5.399 -14.263,-14.395 -17.2112,-19.992 -9.2878,-17.634 -6.3773,-49.413 4.5261,-49.413 2.1911,0 10.8889,6.381 19.3289,14.178 8.4389,7.796 15.6931,13.718 16.1189,13.152 0.4278,-0.563 2.5088,-6.661 4.6256,-13.552 4.2644,-13.879 11.1119,-17.422 18.3593,-9.504 6.2623,6.843 12.4117,27.026 12.4117,40.741 0,10.07 0.929,12.555 5.1751,13.862 3.2176,0.988 5.173,3.788 5.173,7.417 0,3.202 1.745,6.473 3.8791,7.267 9.7446,3.62 0.5611,17.302 -19.3983,28.893 -11.5031,6.678 -8.1551,6.851 5.1711,0.264 5.5777,-2.755 11.9328,-5.01 14.1239,-5.01 4.4093,0 5.5024,8.817 1.3954,11.273 -4.7144,2.823 -2.699,5.723 8.4081,12.084 12.8038,7.332 76.6413,69.03 101.5546,98.15 18.9619,22.168 39.5374,60.08 46.9084,86.432 3.1635,11.318 4.5898,25.845 4.668,47.605 0.1014,29.925 -0.2095,27.848 -7.1691,39.315 -4.0056,6.601 -10.6324,15.697 -14.7284,20.216 l -7.4453,8.215 32.8337,2.745 c 43.4159,3.63 47.059,5.062 47.059,18.475 0,8.685 -1.5257,11.805 -9.1912,18.81 -8.2459,7.531 -9.2453,9.862 -9.7011,22.629 -0.4944,13.938 -0.339,14.277 7.4617,16.288 20.2424,5.217 21.6471,21.686 2.5503,29.873 l -11.2732,4.833 -1.7517,20.667 c -0.9634,11.366 -3.459,35.32 -5.543,53.234 -7.0011,60.13 -11.2896,107.597 -11.3186,125.304 -0.029,22.527 -5.6356,33.544 -19.7045,38.792 -8.3066,3.103 -25.0552,3.691 -95.5317,3.373 -88.6852,-0.404 -104.8997,-1.993 -109.7261,-10.73 -1.4254,-2.575 -7.2822,-28.186 -13.0153,-56.912 -5.7342,-28.724 -12.7855,-64.062 -15.668,-78.533 -2.8825,-14.467 -7.2889,-39.193 -9.7938,-54.95 -4.4537,-28.016 -4.7202,-28.695 -12.1791,-31.003 -12.1239,-3.748 -21.8521,-14.014 -21.8521,-23.061 0,-8.663 8.8977,-18.755 16.5371,-18.755 3.6811,0 4.276,-1.457 3.066,-7.517 -0.8237,-4.133 -2.1728,-10.898 -2.9945,-15.034 -0.872,-4.355 -3.1269,-7.515 -5.374,-7.515 -6.1484,0 -18.9928,-14.022 -18.9928,-20.736 0,-3.35 2.6595,-8.867 5.9089,-12.265 5.0563,-5.287 9.8132,-6.624 32.9767,-9.281 14.8868,-1.707 31.4092,-3.745 36.7157,-4.525 l 9.6499,-1.419 -11.1718,-12.035 c -16.0331,-17.272 -28.6137,-38.434 -35.6409,-67.27 -5.2484,-21.517 -6.0731,-31.06 -5.8549,-67.644 0.2163,-36.154 1.2709,-46.974 6.9789,-71.622 7.231,-31.228 16.3913,-57.05 26.3696,-74.346 5.5941,-9.699 6.355,-19.531 1.3606,-17.609 -1.0458,0.404 -16.0968,16.517 -33.445,35.807 -34.6106,38.492 -45.708,47.962 -59.0217,50.381 -14.1963,2.581 -20.8112,-2.105 -29.5959,-20.965 -4.3262,-9.287 -8.2072,-17.247 -8.6253,-17.685 -1.5634,-1.645 -27.3681,17.839 -30.0449,22.685 -1.5325,2.773 -5.7177,13.077 -9.2994,22.896 -6.0287,16.53 -6.6641,22.658 -8.6022,82.986 -1.1723,36.435 -3.4416,69.557 -5.1557,75.163 -1.8821,6.162 -8.0488,14.843 -16.005,22.546 l -12.9419,12.525 4.8274,30.064 c 4.1813,26.039 4.8052,42.494 4.6593,135.793 -0.1023,59.249 -1.3809,115.313 -2.8651,127.025 -1.5953,12.584 -1.7527,22.469 -0.3863,24.167 1.4273,1.771 14.0515,3.209 32.9863,3.757 25.7129,0.745 31.5533,1.662 36.1161,5.66 16.9697,14.88 -3.5015,19.713 -58.6712,13.856 -35.4806,-3.766 -35.5608,-3.873 -31.8063,-41.12 11.2848,-111.949 8.5105,-297.41 -4.3764,-294.926 -3.1249,0.599 -3.7661,5.598 -3.46,27.04 0.6364,44.897 -4.0732,107.898 -9.7291,132.188 -6.9354,29.805 -24.049,85.554 -34.2045,113.421 -9.7871,26.859 -25.5806,76.282 -25.5931,80.085 -0.019,4.225 36.553,11.032 59.2703,11.032 22.392,0 33.1785,4.74 29.8576,13.126 -3.628,9.152 -44.6391,12.587 -68.4423,5.731 z m 483.0158,-30.406 21.3394,-1.428 v -17.27 c 0,-18.533 4.8438,-73.282 13.0239,-147.191 6.273,-56.673 6.3455,-53.053 -1.067,-53.053 -14.8578,0 -14.8926,-15.034 -0.029,-17.553 7.3526,-1.25 7.51,-1.617 9.0483,-21.299 0.8624,-11.009 2.3441,-23.406 3.2978,-27.537 l 1.7353,-7.517 -66.6679,0.58 c -36.6655,0.319 -98.4935,1.293 -137.3887,2.171 -70.4678,1.586 -70.7208,1.609 -69.5108,6.937 0.6673,2.938 3.2852,15.208 5.8191,27.265 l 4.6072,21.922 h 9.6664 c 6.4255,0 10.1897,1.327 11.2336,3.962 2.6759,6.757 1.8348,8.305 -6.8369,12.577 -4.6227,2.277 -8.7191,4.397 -9.1044,4.709 -0.7802,0.634 11.6354,75.27 13.5339,81.367 0.6624,2.126 3.5005,16.263 6.3097,31.42 13.9703,75.386 18.8218,100.167 19.9749,101.97 1.3055,2.048 208.6084,-2.032 171.0277,-2.032 z m -110.8019,-10.02 c 0,-4.034 -3.9467,-23.658 -5.5082,-85.804 -1.1298,-44.978 -3.7371,-101.07 -5.7892,-124.644 -3.6048,-41.354 -2.9955,-55.247 2.4789,-56.674 3.488,-0.909 10.8715,39.819 14.1838,78.245 1.4832,17.224 3.8269,60.626 5.2049,96.453 1.3809,35.828 3.1964,70.332 4.0365,76.673 1.1646,8.813 0.5205,12.51 -2.728,15.659 -5.3228,5.158 -11.8787,6.787 -11.8787,0.1 z m 43.8839,-1.554 c -2.335,-4.227 -2.6643,-33.332 -1.351,-119.628 1.8725,-123.226 3.1201,-145.363 8.1937,-145.363 1.7682,0 4.1032,2.538 5.1905,5.64 1.0835,3.1 2.4808,62.338 3.1066,131.642 1.1665,129.244 0.9048,133.294 -8.579,133.294 -1.9111,0 -4.8632,-2.51 -6.5608,-5.585 z m -92.1867,-0.05 c -2.9781,-3.569 -3.4175,-6.743 -12.0573,-87.062 -11.758,-109.296 -13.6527,-176.871 -5.0331,-179.654 4.6159,-1.491 5.599,3.679 9.9734,52.353 5.5642,61.954 10.4882,109.567 17.0045,164.417 2.9984,25.235 4.81,47.5 4.0269,49.478 -1.7547,4.427 -10.3684,4.718 -13.9144,0.468 z m 137.2931,-3.428 c -1.9139,-4.824 5.8317,-181.477 9.9223,-226.382 3.0312,-33.268 6.7964,-43.016 12.574,-32.558 2.9404,5.326 2.2026,76.357 -1.3906,133.968 -0.6026,9.646 -2.3582,41.214 -3.9003,70.149 -1.5422,28.936 -3.2824,54.024 -3.8676,55.744 -1.5373,4.532 -11.448,3.849 -13.3378,-0.921 z m -621.3132,-238.033 c 19.3453,-37.323 95.4506,-140.335 128.2274,-173.566 5.4444,-5.521 15.3995,-14.82 22.1244,-20.669 12.1028,-10.528 11.4587,-13.047 -2.0636,-8.064 -10.0613,3.705 -45.146,32.693 -61.4938,50.813 -24.6014,27.265 -65.6511,82.096 -79.013,105.538 -13.108,22.994 -28.7229,63.535 -28.7229,74.566 0,3.31 1.3973,7.369 3.1037,9.024 2.4122,2.339 3.8346,0.236 6.3956,-9.457 1.8116,-6.857 6.9605,-19.541 11.4422,-28.185 z m 18.059,28.749 c 20.0386,-17.411 72.4551,-79.31 102.4411,-120.97 27.2464,-37.856 55.991,-89.487 54.6274,-98.129 -1.8415,-11.685 -58.127,47.843 -104.7089,110.743 -47.8741,64.648 -65.1779,92.225 -71.9106,114.62 -2.7589,9.173 4.4363,6.868 19.551,-6.264 z m 391.4954,-12.769 c -2.4132,-7.599 -3.3286,-8.286 -6.7075,-5.012 -3.7767,3.661 -0.9193,10.649 4.3581,10.649 3.0959,0 3.6869,-1.418 2.3494,-5.637 z m 298.5831,-4.155 c 2.8613,-1.756 2.4721,-2.772 -1.939,-5.059 -4.8004,-2.487 -5.5237,-2.193 -5.5237,2.237 0,5.529 1.8889,6.242 7.4627,2.822 z m -91.9365,-65.397 c 71.8863,2.533 80.3891,2.418 86.0807,-1.196 3.4745,-2.203 5.7467,-4.907 5.0456,-6.001 -1.6909,-2.652 -243.7475,-5.899 -277.8009,-3.726 -27.0455,1.73 -34.0514,4.346 -34.0514,12.729 0,3.271 2.2712,3.663 13.5792,2.332 71.0374,-5.56 111.3317,-4.906 207.1468,-4.138 z m 3.1432,-35.142 c 18.1066,-12.092 30.7836,-25.216 35.0403,-43.432 1.1182,-4.779 0.9222,-17.266 -0.4345,-27.746 -7.9649,-61.531 -28.7847,-95.798 -106.4786,-175.26 -34.5082,-35.293 -52.7266,-50.99 -56.5361,-48.711 -1.7846,1.069 4.445,9.023 16.3198,20.838 32.4639,32.292 61.7661,68.939 74.5796,93.274 4.783,9.081 4.9211,14.774 0.3563,14.769 -0.9811,0 -9.9328,-10.87 -19.8918,-24.149 -9.956,-13.284 -29.31,-37.89 -43.0051,-54.679 -13.6961,-16.796 -27.9687,-35.238 -31.7184,-40.992 -8.9286,-13.701 -12.9805,-13.411 -6.639,0.478 2.7474,6.013 9.1295,27.151 14.1848,46.974 5.0543,19.825 11.5571,43.062 14.4493,51.642 5.0958,15.107 4.8003,22.524 -0.7648,19.192 -5.346,-3.198 -12.2467,-23.08 -24.2557,-69.865 -6.7182,-26.182 -13.0568,-48.522 -14.0853,-49.642 -5.456,-5.958 -5.5159,68.118 -0.048,82 1.465,3.738 2.6691,9.629 2.6691,13.082 0,8.668 -7.8045,6.929 -12.9139,-2.882 -4.8148,-9.247 -6.7703,-61.722 -3.0351,-81.569 2.4799,-13.182 2.1371,-17.344 -1.1636,-14.145 -2.2809,2.209 -12.8897,40.601 -20.9203,75.702 -6.0962,26.645 -6.8977,35.622 -7.0542,78.92 -0.1699,43.267 0.4974,51.288 5.712,70.138 7.3226,26.456 18.0635,40.477 38.0821,59.884 l 15.5183,15.044 60.5745,-0.8 60.5755,-0.797 z m -574.8056,-36.297 c 7.9079,-10.052 9.2646,-13.263 6.8186,-16.119 -2.5803,-3.012 -3.826,-2.619 -8.0015,2.526 -4.444,5.468 -12.5692,21.697 -12.5692,25.092 0,3.844 4.9182,-0.27 13.7521,-11.499 z m 145.2439,-1.693 c 0.9367,-6.608 2.702,-13.583 3.9245,-15.497 3.7014,-5.801 9.5969,1.254 11.5417,13.821 1.9256,12.449 2.3408,12.666 14.6792,7.64 20.8517,-8.495 27.6307,-22.967 27.9657,-59.707 l 0.1517,-16.913 -17.4584,-0.247 c -20.0579,-0.289 -29.5543,-2.341 -31.0588,-6.709 -0.7841,-2.269 5.2716,-3.065 23.3644,-3.065 h 24.4188 l 1.3945,-33.194 c 1.3094,-31.244 5.455,-50.64 16.0117,-74.936 1.2709,-2.915 0.2115,-4.648 -3.5527,-5.803 -9.7339,-2.994 -5.5989,-7.944 12.321,-14.755 24.8795,-9.454 36.6356,-22.815 36.6356,-41.645 0,-7.226 -10.069,-52.64 -11.673,-52.64 -0.4722,0 -4.473,3.499 -8.8832,7.775 -6.4951,6.29 -9.368,7.451 -15.0722,6.106 -11.7657,-2.786 -16.8268,-9.711 -18.116,-24.791 -1.2862,-15 -3.2465,-16.544 -21.1008,-16.612 -7.9455,-0.03 -11.8758,2.953 -37.0894,28.15 -18.2744,18.262 -30.4418,32.765 -34.556,41.194 -7.7128,15.795 -17.5433,53.33 -22.8362,87.202 -3.3064,21.165 -9.2946,84.201 -8.1357,85.638 0.2037,0.251 6.9093,-1.308 14.906,-3.465 20.0237,-5.398 30.2791,-3.056 38.0286,8.692 9.5118,14.415 7.1334,30.568 -9.4481,64.162 -7.3961,14.99 -13.4523,27.595 -13.4523,28.011 0,1.049 10.2501,2.857 18.5075,3.268 6.3155,0.315 7.0108,-0.633 8.5771,-11.68 z m -62.1181,-85.615 c -0.068,-0.729 -1.6571,-6.398 -3.545,-12.596 -6.6515,-21.869 -0.4625,-83.018 14.0776,-139.047 l 1.9497,-7.517 -7.0794,6.263 c -11.2993,9.997 -34.3054,43.062 -42.9636,61.743 -9.1082,19.65 -21.5721,60.942 -24.358,80.684 -1.8609,13.17 -1.7324,13.529 7.2483,20.7 5.0282,4.014 10.4717,11.203 12.0969,15.975 l 2.9588,8.679 19.8619,-16.784 c 10.9256,-9.228 19.8156,-17.374 19.7528,-18.1 z m 341.2961,-195.729 c -3.263,-3.494 -3.4716,-5.422 -1.0622,-9.784 3.4078,-6.169 0.9985,-10.585 -2.6914,-4.931 -2.8467,4.363 -3.2987,23.355 -0.6151,25.954 1.0256,0.997 3.3451,-0.164 5.1519,-2.538 2.7009,-3.581 2.5638,-5.12 -0.7832,-8.701 z m -187.1178,-22.393 c 7.5593,-3.919 6.0374,-8.085 -5.2291,-14.318 -13.2016,-7.302 -14.0061,-7.152 -12.0622,2.266 2.7937,13.533 7.7602,16.994 17.2913,12.052 z m 199.2379,-27.623 c 0.077,-7.664 -1.5441,-17.811 -3.627,-22.549 l -3.7893,-8.615 -4.1765,9.314 c -5.1239,11.42 -5.2089,15.313 -0.5205,24.09 2.0124,3.772 4.5347,11.325 5.6066,16.79 l 1.9507,9.934 2.1979,-7.514 c 1.209,-4.137 2.2722,-13.789 2.3581,-21.45 z m -24.5676,21.702 c 2.0231,-5.104 -9.6943,-26.056 -21.854,-39.088 l -10.52,-11.272 -0.1024,7.514 c -0.168,12.87 4.669,24.967 14.2987,35.865 9.5108,10.766 15.7259,13.15 18.171,6.981 z m -174.1001,-38.285 c -12.5566,-5.286 -25.0331,-15.244 -32.9332,-26.284 -6.1156,-8.549 -8.0015,-9.641 -14.4802,-8.385 -5.4783,1.059 -7.8837,0.35 -9.085,-2.682 -1.2689,-3.201 -2.4403,-3.484 -5.2118,-1.252 -4.0056,3.219 -11.3379,-0.905 -11.3379,-6.379 0,-1.901 -2.7589,-2.626 -7.454,-1.96 -8.831,1.257 -11.9666,-2.379 -8.0933,-9.391 2.252,-4.078 2.0077,-5.064 -1.2563,-5.064 -5.4753,0 -7.792,-6.717 -3.8878,-11.274 2.5532,-2.979 2.3572,-3.999 -1.0033,-5.245 -4.9703,-1.848 -5.4474,-8.7 -0.9367,-13.41 2.6334,-2.749 2.4286,-3.102 -1.1038,-1.904 -5.6907,1.933 -11.8304,-4.865 -7.8673,-8.706 2.0579,-1.992 1.3046,-3.948 -2.7415,-7.123 -4.9341,-3.869 -5.1514,-4.873 -1.8667,-8.706 2.0424,-2.384 3.7497,-6.738 3.7951,-9.683 0.068,-3.567 1.9768,-5.611 5.7612,-6.132 3.9699,-0.546 5.204,-1.972 4.107,-4.745 -0.929,-2.343 0.3911,-5.356 3.2234,-7.361 4.3571,-3.086 4.387,-3.394 0.339,-3.394 -6.3368,0 -8.6824,-7.592 -3.2543,-10.534 3.4628,-1.878 3.767,-3.164 1.4021,-5.923 -4.753,-5.543 -0.8343,-11.869 6.5105,-10.508 5.2369,0.972 6.4295,0.05 7.0794,-5.351 0.8015,-6.688 3.9254,-7.567 13.7134,-3.864 4.9723,1.877 4.9974,1.76 0.648,-3.052 -6.131,-6.782 -5.8143,-13.383 0.6451,-13.383 3.8588,0 5.1731,-1.669 5.1731,-6.574 0,-5.94 0.7358,-6.433 7.594,-5.106 6.4265,1.244 7.7157,0.621 8.4052,-4.072 1.125,-7.663 12.2814,-9.216 14.2359,-1.982 1.3191,4.892 3.3364,6.06 7.9156,4.585 1.067,-0.347 1.939,-4.01 1.939,-8.146 0,-5.886 1.2602,-7.69 5.8201,-8.316 3.2022,-0.438 5.8182,0.408 5.8182,1.88 0,4.667 4.5126,2.892 5.9234,-2.331 1.7199,-6.372 8.6128,-6.467 12.6715,-0.175 2.4963,3.876 4.1283,4.31 8.2217,2.188 3.9631,-2.053 5.7931,-1.734 8.1802,1.428 4.1843,5.543 6.386,5.118 6.386,-1.227 0,-4.416 1.1733,-5.086 7.0146,-4.005 4.6874,0.869 8.1194,-0.08 10.3472,-2.838 3.038,-3.772 3.825,-3.586 8.8822,2.123 3.6396,4.115 5.9331,5.19 6.6795,3.134 0.6209,-1.723 3.5073,-3.134 6.413,-3.134 4.4885,0 5.0466,1.129 3.7285,7.518 -1.6793,8.132 0.9405,9.753 6.0789,3.756 4.5724,-5.335 10.5895,-4.653 12.2186,1.394 0.9657,3.572 2.6807,4.641 5.5806,3.483 8.7306,-3.491 11.9424,-2.443 11.9424,3.893 0,3.76 1.9275,7.026 4.8235,8.169 3.2215,1.271 4.3736,3.555 3.4736,6.889 -1.3925,5.162 1.8241,6.884 4.6361,2.481 2.9811,-4.673 11.6402,-2.812 11.6402,2.504 0,2.828 1.7228,5.01 3.9612,5.01 5.3083,0 7.6964,6.723 3.9438,11.105 -2.3659,2.76 -2.0598,4.042 1.4031,5.917 2.7937,1.519 3.8038,3.969 2.7386,6.653 -0.9724,2.45 0.019,5.916 2.3524,8.17 2.8545,2.764 3.2312,4.692 1.2863,6.578 -3.7265,3.607 -3.4764,6.984 0.4799,6.486 11.4944,-1.444 13.9588,8.438 3.2775,13.15 -5.6521,2.494 -5.9292,3.184 -2.305,5.751 5.709,4.04 3.4657,12.428 -3.5856,13.404 -6.7403,0.931 -7.3748,3.578 -1.913,7.969 5.5295,4.443 4.7956,10.258 -1.5025,11.852 -3.9274,0.997 -5.0051,2.757 -3.9873,6.525 2.0018,7.417 -2.8275,12.244 -9.0338,9.026 -4.0896,-2.121 -5.3489,-1.474 -7.4231,3.812 -2.8777,7.331 -8.9943,8.324 -12.6223,2.048 -2.0559,-3.561 -3.6674,1.05 -9.8601,13.107 -3.6651,7.135 -7.9582,12.271 -10.4815,16.347 3.5498,7.543 0.385,15.515 -8.3611,11.989 -2.3647,4.196 -3.5136,5.936 -10.5236,13.792 -6.0527,6.783 -13.2743,11.91 -19.0905,14.468 -12.8772,5.665 -42.8564,6.219 -55.2073,1.017 z m 43.6019,-14.123 c 10.4573,-3.323 24.9718,-16.928 29.4313,-23.639 -3.486,-5.12 1.4799,-9.995 4.8288,-9.5 0,0 3.3329,-3.85 3.9913,-5.017 -7.8299,-0.381 -5.5698,-7.951 -2.4375,-11.952 2.0171,-2.576 8.8399,-8.008 10.494,-0.72 4.3635,-6.85 10.9206,-17.214 8.5083,-26.056 -1.0091,-3.692 -1.5508,-8.084 -1.2051,-9.756 0.3457,-1.675 -1.7151,-5.313 -4.5773,-8.085 -5.1316,-4.972 -5.2436,-4.975 -7.8905,-0.176 -2.9482,5.333 -10.3684,4.254 -10.3684,-1.509 0,-2.869 -0.9318,-2.943 -5.1064,-0.42 -4.3146,2.609 -5.7091,2.323 -8.9701,-1.856 -3.7295,-4.779 -3.8647,-4.712 -3.9438,1.941 -0.1014,7.53 -6.6883,9.489 -12.6513,3.758 -2.6111,-2.512 -2.9134,-2.257 -1.5199,1.284 1.9719,5.018 -3.291,12.598 -7.1412,10.292 -1.3963,-0.835 -5.457,-0.02 -9.0212,1.839 -5.6685,2.939 -6.893,2.809 -9.7803,-1.016 -3.0825,-4.085 -3.3973,-4.023 -4.7318,0.92 -1.1395,4.221 -2.646,4.927 -7.4299,3.486 -5.9022,-1.783 -5.9224,-1.726 -1.2216,3.372 6.5946,7.158 3.1723,11.34 -7.6616,9.371 -8.2603,-1.501 -12.0264,1.394 -6.2826,4.831 3.8327,2.296 0.1004,8.838 -5.037,8.838 -2.5271,0 -5.2426,2.4 -6.0344,5.335 -1.0101,3.739 -2.7338,4.855 -5.7622,3.731 -3.6183,-1.347 -4.0355,-0.48 -2.5658,5.31 3.9641,15.615 19.9295,29.574 39.7373,34.74 13.152,2.659 24.2176,3.873 34.3489,0.654 z m 11.2328,-50.98 c -1.7276,-4.361 5.8626,-13.684 11.14,-13.684 5.063,0 5.6093,8.939 0.1051,13.774 -5.0351,4.424 -9.2983,4.826 -11.2451,-0.09 z" transform="translate(396.21116,295.98434) matrix(0.26458333,0,0,0.26458333,-2672.63,-4545.6157)" fill="#4e4d49"/>
</svg>